<svg xmlns="http://www.w3.org/2000/svg" xmlns:xlink="http://www.w3.org/1999/xlink" height="48" width="48"><defs><linearGradient id="a"><stop offset="0" stop-color="#51229a"/><stop offset="1" stop-color="#971bf2"/></linearGradient><radialGradient gradientUnits="userSpaceOnUse" gradientTransform="matrix(.86139 .03 -.03292 .94505 3.264 -2.154)" r="17.25" fy="19.354" fx="17.486" cy="19.354" cx="17.486" id="b" xlink:href="#a"/></defs><path fill="#ccc" fill-rule="evenodd" d="M17 8.016h14v24H17z"/><path d="M20.481 20.349c-.915-.816-1.07-1.254-1.07-1.924.011-.617-.56-.926-1.076-.883l-.999-.009c-.244-.005-.886.158-.96 1.01 0 1.115.258 2.378 2.13 4.045 1.148 1.029 1.148 1.65 1.148 2.197 0 1.398-1.287 1.467-1.546 1.467-.758 0-1.57-.209-1.834-1.757a1.027 1.027 0 0 0-1.012-.853h-.98a1.022 1.022 0 0 0-1.025 1.092c.1 1.555 1.249 4.494 4.872 4.494 1.88 0 2.976-.818 3.562-1.504.672-.786 1.057-1.85 1.057-2.918 0-1.776-.614-2.983-2.267-4.457zm-1.12-6.858c0-.422-.458-.767-1.026-.767h-.999c-.568 0-1.027.345-1.027.767v1.448c0 .422.459.767 1.027.767h.999c.568 0 1.027-.345 1.027-.767zM18 35.224C8.473 35.224.75 29.034.75 21.4c0-7.331 7.12-13.332 16.125-13.795l-2.019-5.649c-.338-1.053 1.115-1.6 1.864-.876l6.818 7.22c6.81 1.852 11.712 7.016 11.712 13.1 0 7.635-7.723 13.825-17.251 13.825" fill="url(#b)" transform="matrix(1.33333 0 0 -1.33333 0 48)"/></svg>